<?xml version="1.0" encoding="UTF-8"?>
<!--Generator: Apple Native CoreSVG 232.5-->
<!DOCTYPE svg
PUBLIC "-//W3C//DTD SVG 1.1//EN"
       "http://www.w3.org/Graphics/SVG/1.1/DTD/svg11.dtd">
<svg version="1.1" xmlns="http://www.w3.org/2000/svg" xmlns:xlink="http://www.w3.org/1999/xlink" width="103.031" height="98.1562">
 <g>
  <rect height="98.1562" opacity="0" width="103.031" x="0" y="0"/>
  <path d="M83.8125 35.2812C84.4688 35.2812 84.9688 34.8125 85.0938 34.1875C86.8438 24.8125 86.6875 25.25 95.8438 23.4688C96.4688 23.3438 96.9375 22.9062 96.9375 22.1562C96.9375 21.5 96.4375 21.0312 95.8438 20.875C86.6562 19.0625 86.8438 19.4062 85.0938 10.125C84.9688 9.53125 84.4688 9.03125 83.8125 9.03125C83.0625 9.03125 82.625 9.5 82.5 10.125C80.7188 19.4688 80.5625 19.1562 71.7812 20.875C71.1562 21.0312 70.6875 21.5 70.6875 22.1562C70.6875 22.9062 71.125 23.3438 71.7812 23.4688C80.5625 25.1875 80.7188 24.8438 82.5 34.1875C82.625 34.8438 83.0625 35.2812 83.8125 35.2812ZM42.9375 98.1562C43.5312 98.1562 43.9062 97.7812 44 97.1875C45.625 89.5938 45.625 89.5938 53.1562 88.0625C53.7188 87.9688 54.125 87.5938 54.125 87C54.125 86.4062 53.7188 86 53.1562 85.9062C45.625 84.375 45.625 84.375 44 76.7812C43.9062 76.1875 43.5312 75.8125 42.9375 75.8125C42.375 75.8125 42 76.1875 41.875 76.7812C40.2812 84.3438 40.3125 84.375 32.75 85.9062C32.1875 86 31.7812 86.4062 31.7812 87C31.7812 87.5938 32.1875 87.9688 32.75 88.0625C40.3125 89.5938 40.2812 89.625 41.875 97.1875C42 97.7812 42.375 98.1562 42.9375 98.1562ZM22.3438 85.3438C22.8438 85.3438 23.1562 85.0625 23.2188 84.5625C24.5 78.3438 24.5 78.3438 30.6562 77.125C31.1562 77.0312 31.4688 76.75 31.4688 76.2188C31.4688 75.7188 31.1562 75.375 30.6562 75.3125C24.5 74.0938 24.5 74.0938 23.2188 67.875C23.1562 67.4062 22.8438 67.0938 22.3438 67.0938C21.8125 67.0938 21.5312 67.4062 21.4688 67.875C20.1562 74.0625 20.1562 74.0938 14 75.3125C13.5312 75.375 13.1875 75.7188 13.1875 76.2188C13.1875 76.75 13.5312 77.0312 14 77.125C20.1562 78.3438 20.1562 78.375 21.4688 84.5625C21.5312 85.0625 21.8125 85.3438 22.3438 85.3438Z" fill="#000000" fill-opacity="0.85"/>
  <path d="M80.7188 81.7812C81.8438 81.7812 82.7812 80.875 82.7812 79.75L82.7812 72.9688L86.4688 76.625C87.25 77.4375 88.5 77.4688 89.2812 76.625C90.1562 75.8125 90.1562 74.5625 89.3125 73.75L85.6562 70.0938L92.4062 70.0938C93.5312 70.0938 94.4688 69.1875 94.4688 68.0312C94.4688 66.9375 93.5312 66.0312 92.4062 66.0312L85.625 66.0312L89.3125 62.3438C90.125 61.5312 90.125 60.2812 89.2812 59.5C88.5 58.6562 87.25 58.6562 86.4375 59.4688L82.7812 63.1562L82.7812 56.375C82.7812 55.25 81.8438 54.3438 80.7188 54.3438C79.5938 54.3438 78.6875 55.25 78.6875 56.375L78.6875 63.1562L75.0312 59.4688C74.2188 58.6562 72.9688 58.6562 72.125 59.5C71.3125 60.2812 71.3125 61.5312 72.125 62.3438L75.8125 66.0312L69 66.0312C67.9062 66.0312 67 66.9375 67 68.0312C67 69.1875 67.9062 70.0938 69 70.0938L75.7812 70.0938L72.1562 73.75C71.3125 74.5938 71.3125 75.8125 72.1562 76.625C72.9375 77.4688 74.1875 77.4688 75 76.625L78.6875 72.9688L78.6875 79.75C78.6875 80.875 79.5938 81.7812 80.7188 81.7812ZM80.75 51.625C82.3125 51.625 83.5625 50.375 83.5625 48.7812C83.5625 47.1875 82.3125 45.9375 80.75 45.9375C79.1562 45.9375 77.9062 47.1875 77.9062 48.7812C77.9062 50.375 79.1562 51.625 80.75 51.625ZM93.9375 57.4688C95.4062 57.4688 96.5938 56.3125 96.5938 54.8125C96.5938 53.3125 95.4062 52.1562 93.9375 52.1562C92.4375 52.1562 91.2812 53.3125 91.2812 54.8125C91.2812 56.3125 92.4375 57.4688 93.9375 57.4688ZM100.031 70.9062C101.594 70.9062 102.844 69.625 102.844 68.0625C102.844 66.5 101.594 65.25 100.031 65.25C98.4062 65.25 97.1875 66.5 97.1875 68.0625C97.1875 69.625 98.4062 70.9062 100.031 70.9062ZM93.9375 83.9688C95.4062 83.9688 96.5938 82.7812 96.5938 81.3125C96.5938 79.8125 95.4062 78.6562 93.9375 78.6562C92.4375 78.6562 91.2812 79.8125 91.2812 81.3125C91.2812 82.7812 92.4375 83.9688 93.9375 83.9688ZM80.75 90.1875C82.3125 90.1875 83.5625 88.9375 83.5625 87.3438C83.5625 85.75 82.3125 84.5 80.75 84.5C79.1562 84.5 77.9062 85.75 77.9062 87.3438C77.9062 88.9375 79.1562 90.1875 80.75 90.1875ZM67.5312 83.9375C69.0312 83.9375 70.1875 82.7812 70.1875 81.3125C70.1875 79.8125 69.0312 78.6562 67.5312 78.6562C66.0625 78.6562 64.875 79.8125 64.875 81.3125C64.875 82.7812 66.0625 83.9375 67.5312 83.9375ZM61.4375 70.9062C63.0625 70.9062 64.3125 69.625 64.2812 68.0625C64.3125 66.5 63.0625 65.25 61.4375 65.25C59.875 65.25 58.625 66.5 58.625 68.0625C58.625 69.625 59.875 70.9062 61.4375 70.9062ZM67.5312 57.4688C69.0312 57.4688 70.1875 56.3125 70.1875 54.8125C70.1875 53.3125 69.0312 52.1562 67.5312 52.1562C66.0625 52.1562 64.875 53.3125 64.875 54.8125C64.875 56.3125 66.0625 57.4688 67.5312 57.4688Z" fill="#000000" fill-opacity="0.85"/>
  <path d="M30.9688 42.9375C32.125 42.9375 33.0938 42.0625 33.0938 40.8438L33.0625 35.7812L36.625 39.4062C37.4375 40.25 38.8125 40.25 39.6562 39.4062C40.4375 38.5938 40.4688 37.2188 39.6562 36.4062L35.9688 32.8438L41.0625 32.8438C42.25 32.8438 43.1875 31.9062 43.1875 30.75C43.1875 29.5938 42.25 28.6562 41.0625 28.6562L36.0312 28.6562L39.5938 25.125C40.4688 24.2812 40.4375 22.9375 39.5938 22.0938C38.7812 21.3125 37.4375 21.25 36.5625 22.0938L33.0938 25.6875L33.0625 20.6562C33.0625 19.4688 32.1562 18.5625 30.9375 18.5625C29.8125 18.5625 28.8438 19.4688 28.8438 20.6562L28.875 25.6875L25.3125 22.0938C24.5 21.2812 23.125 21.2812 22.2812 22.0938C21.5 22.9062 21.4688 24.3125 22.2812 25.125L25.9062 28.6562L20.8438 28.6562C19.6875 28.6562 18.75 29.5938 18.75 30.75C18.75 31.9062 19.6875 32.8438 20.8438 32.8438L25.9375 32.8438L22.2812 36.4062C21.4688 37.25 21.4688 38.5625 22.2812 39.4062C23.125 40.2188 24.5 40.2812 25.3125 39.4062L28.8438 35.7812L28.875 40.8438C28.875 42.0625 29.75 42.9375 30.9688 42.9375ZM31 13.3125C32.25 13.3125 33.2812 12.2812 33.2812 11L33.2812 2.34375C33.2812 1.09375 32.25 0.0625 31 0.0625C29.7188 0.0625 28.6875 1.09375 28.6875 2.34375L28.6875 11C28.6875 12.2812 29.7188 13.3125 31 13.3125ZM39.8438 15.6875C40.9688 16.3438 42.3438 15.9375 42.9688 14.8438L47.3125 7.34375C47.9688 6.21875 47.5625 4.8125 46.5 4.21875C45.375 3.5625 44.0312 3.9375 43.375 5.0625L39 12.5312C38.375 13.6562 38.75 15.0625 39.8438 15.6875ZM46.3438 22.1562C47 23.2812 48.4062 23.5938 49.4688 23L57 18.6875C58.0625 18.0625 58.4375 16.625 57.8125 15.5312C57.1875 14.4375 55.7812 14.0938 54.6875 14.7188L47.1562 19.0312C46.0938 19.625 45.7188 21.0938 46.3438 22.1562ZM48.6875 31C48.6875 32.3125 49.75 33.3125 51 33.3125L59.6562 33.3438C60.9375 33.3438 62 32.2812 62 31.0312C62 29.75 60.9375 28.75 59.6875 28.75L51 28.7188C49.75 28.7188 48.6875 29.7812 48.6875 31ZM46.3438 39.875C45.7188 41 46.125 42.375 47.1562 43L54.6562 47.3438C55.7812 48 57.1875 47.5938 57.8125 46.5312C58.4375 45.4062 58.0312 44.0312 57 43.4062L49.4688 39.0312C48.4375 38.4375 46.9375 38.7812 46.3438 39.875ZM39.8438 46.3438C38.7188 47.0312 38.4062 48.4375 39 49.4688L43.3438 57C43.9688 58.0938 45.4062 58.5 46.5 57.875C47.5938 57.2188 47.9062 55.8125 47.2812 54.75L42.9688 47.1875C42.375 46.1562 40.9062 45.7188 39.8438 46.3438ZM31 48.75C29.7188 48.75 28.6875 49.7812 28.6875 51.0312L28.6875 59.7188C28.6875 60.9688 29.7188 62 31 62C32.25 62 33.2812 60.9688 33.2812 59.7188L33.2812 51.0312C33.2812 49.7812 32.25 48.75 31 48.75ZM22.1562 46.375C21.0312 45.7188 19.6562 46.125 19 47.2188L14.6562 54.7188C14 55.8125 14.4062 57.2188 15.5 57.8438C16.625 58.5 17.9688 58.125 18.625 57L22.9688 49.5C23.625 48.4062 23.2188 47 22.1562 46.375ZM15.6562 39.9062C15 38.7812 13.5938 38.4688 12.5312 39.0625L5 43.375C3.90625 44 3.53125 45.4375 4.15625 46.5C4.8125 47.625 6.21875 47.9688 7.3125 47.3438L14.8125 43.0312C15.875 42.4062 16.2812 40.9688 15.6562 39.9062ZM13.2812 31.0312C13.2812 29.7188 12.2188 28.75 11 28.75L2.3125 28.7188C1.0625 28.7188 0 29.7812 0 31C0 32.3125 1.0625 33.3125 2.28125 33.3125L11 33.3438C12.2188 33.3438 13.3125 32.2812 13.2812 31.0312ZM15.6562 22.1875C16.2812 21.0312 15.8438 19.6562 14.8125 19.0625L7.34375 14.7188C6.21875 14.0625 4.8125 14.4688 4.15625 15.5C3.53125 16.6562 3.9375 18.0312 5 18.6562L12.5312 23.0312C13.5625 23.625 15.0625 23.2812 15.6562 22.1875ZM22.1562 15.7188C23.25 15.0312 23.5938 13.625 22.9688 12.5625L18.6562 5.0625C18.0312 3.96875 16.5938 3.5625 15.5 4.1875C14.375 4.8125 14.0625 6.21875 14.6875 7.3125L19 14.875C19.625 15.9062 21.0625 16.3438 22.1562 15.7188Z" fill="#000000" fill-opacity="0.85"/>
 </g>
</svg>
