<?xml version="1.0" encoding="UTF-8"?>
<!--Generator: Apple Native CoreSVG 232.5-->
<!DOCTYPE svg
PUBLIC "-//W3C//DTD SVG 1.1//EN"
       "http://www.w3.org/Graphics/SVG/1.1/DTD/svg11.dtd">
<svg version="1.1" xmlns="http://www.w3.org/2000/svg" xmlns:xlink="http://www.w3.org/1999/xlink" width="20.0127" height="20.8213">
 <g>
  <rect height="20.8213" opacity="0" width="20.0127" x="0" y="0"/>
  <path d="M2.5752 20.8125L17.0684 20.8125C18.8174 20.8125 19.6436 20.2676 19.6436 19.0898C19.6436 16.1279 15.9082 11.874 9.81738 11.874C3.73535 11.874 0 16.1279 0 19.0898C0 20.2676 0.826172 20.8125 2.5752 20.8125ZM2.14453 19.3447C1.71387 19.3447 1.55566 19.2305 1.55566 18.9141C1.55566 16.8662 4.53516 13.3506 9.81738 13.3506C15.1084 13.3506 18.0879 16.8662 18.0879 18.9141C18.0879 19.2305 17.9297 19.3447 17.499 19.3447ZM9.83496 10.3799C12.498 10.3799 14.6426 8.0332 14.6426 5.12402C14.6426 2.26758 12.498 0 9.83496 0C7.18066 0 5.01855 2.30273 5.01855 5.1416C5.01855 8.04199 7.17188 10.3799 9.83496 10.3799ZM9.83496 8.91211C8.05078 8.91211 6.57422 7.25977 6.57422 5.1416C6.57422 3.08496 8.04199 1.46777 9.83496 1.46777C11.6279 1.46777 13.0869 3.05859 13.0869 5.12402C13.0869 7.24219 11.6191 8.91211 9.83496 8.91211Z" fill="#000000" fill-opacity="0.85"/>
 </g>
</svg>
