<?xml version="1.0" encoding="UTF-8"?>
<!--Generator: Apple Native CoreSVG 232.5-->
<!DOCTYPE svg
PUBLIC "-//W3C//DTD SVG 1.1//EN"
       "http://www.w3.org/Graphics/SVG/1.1/DTD/svg11.dtd">
<svg version="1.1" xmlns="http://www.w3.org/2000/svg" xmlns:xlink="http://www.w3.org/1999/xlink" width="24.3896" height="24.0029">
 <g>
  <rect height="24.0029" opacity="0" width="24.3896" x="0" y="0"/>
  <path d="M10.8633 24.0029L13.1572 24.0029C13.9834 24.0029 14.5986 23.5107 14.792 22.7021L15.293 20.54L15.7676 20.373L17.6484 21.5332C18.3516 21.9814 19.1426 21.8848 19.7314 21.2959L21.3135 19.7051C21.9111 19.1162 22.0166 18.3252 21.5684 17.6309L20.3906 15.75L20.5576 15.293L22.7197 14.792C23.5195 14.5986 24.0205 13.9746 24.0205 13.1484L24.0205 10.8984C24.0205 10.0811 23.5283 9.45703 22.7197 9.26367L20.5752 8.74512L20.3994 8.27051L21.5771 6.39844C22.0254 5.69531 21.9199 4.92188 21.3223 4.31543L19.7402 2.72461C19.1602 2.14453 18.3691 2.03906 17.666 2.47852L15.7852 3.63867L15.293 3.4541L14.792 1.30078C14.5986 0.483398 13.9834 0 13.1572 0L10.8633 0C10.0371 0 9.42188 0.483398 9.22852 1.30078L8.72754 3.4541L8.22656 3.63867L6.35449 2.47852C5.65137 2.03906 4.86035 2.14453 4.28027 2.72461L2.68945 4.31543C2.10059 4.92188 1.99512 5.69531 2.44336 6.39844L3.62109 8.27051L3.43652 8.74512L1.30078 9.26367C0.492188 9.45703 0 10.0811 0 10.8984L0 13.1484C0 13.9746 0.500977 14.5986 1.30078 14.792L3.4541 15.293L3.62988 15.75L2.45215 17.6309C2.00391 18.3252 2.10938 19.1162 2.69824 19.7051L4.28906 21.2959C4.87793 21.8848 5.66895 21.9814 6.37207 21.5332L8.24414 20.373L8.72754 20.54L9.22852 22.7021C9.42188 23.5107 10.0371 24.0029 10.8633 24.0029ZM11.0215 22.4912C10.7842 22.4912 10.6523 22.377 10.6084 22.1572L9.94922 19.3799C9.29883 19.2041 8.68359 18.958 8.20898 18.6768L5.7832 20.1885C5.59863 20.3115 5.41406 20.2852 5.23828 20.1094L3.87598 18.7471C3.7002 18.5801 3.69141 18.4131 3.81445 18.2109L5.31738 15.7852C5.08008 15.3281 4.80762 14.7129 4.63184 14.0625L1.8457 13.4121C1.62598 13.3682 1.51172 13.2363 1.51172 12.9902L1.51172 11.0479C1.51172 10.8018 1.61719 10.6787 1.8457 10.626L4.62305 9.9668C4.79883 9.29004 5.10645 8.65723 5.2998 8.23535L3.80566 5.81836C3.67383 5.60742 3.68262 5.43164 3.8584 5.26465L5.22949 3.91113C5.40527 3.74414 5.57227 3.71777 5.7832 3.84082L8.19141 5.32617C8.66602 5.07129 9.31641 4.79883 9.95801 4.62305L10.6084 1.8457C10.6523 1.61719 10.7842 1.51172 11.0215 1.51172L12.999 1.51172C13.2451 1.51172 13.3682 1.6084 13.4121 1.8457L14.0713 4.64062C14.7393 4.80762 15.3281 5.08008 15.8115 5.33496L18.2285 3.84082C18.4482 3.71777 18.6064 3.74414 18.791 3.91113L20.1621 5.26465C20.3291 5.43164 20.3379 5.60742 20.2061 5.81836L18.7119 8.23535C18.9229 8.65723 19.2217 9.28125 19.3975 9.9668L22.1748 10.626C22.4033 10.6787 22.5088 10.8018 22.5088 11.0479L22.5088 12.9902C22.5088 13.2363 22.3945 13.3682 22.1748 13.4121L19.3887 14.0625C19.2129 14.7129 18.9492 15.3281 18.6943 15.7852L20.1973 18.2109C20.3203 18.4131 20.3115 18.5801 20.1445 18.7471L18.7822 20.1094C18.5977 20.2852 18.4219 20.3115 18.2285 20.1885L15.8027 18.6768C15.3369 18.958 14.7305 19.2041 14.0713 19.3799L13.4121 22.1572C13.3682 22.3857 13.2451 22.4912 12.999 22.4912ZM12.0146 16.3301C14.3877 16.3301 16.3389 14.3789 16.3389 11.9971C16.3389 9.63281 14.3877 7.68164 12.0146 7.68164C9.6416 7.68164 7.67285 9.63281 7.67285 11.9971C7.67285 14.3701 9.63281 16.3301 12.0146 16.3301ZM12.0146 14.8271C10.4678 14.8271 9.19336 13.5527 9.19336 11.9971C9.19336 10.4678 10.4766 9.18457 12.0146 9.18457C13.5439 9.18457 14.8184 10.4678 14.8184 11.9971C14.8184 13.5439 13.5439 14.8271 12.0146 14.8271Z" fill="#000000" fill-opacity="0.85"/>
 </g>
</svg>
