<?xml version="1.0" encoding="UTF-8"?>
<!--Generator: Apple Native CoreSVG 232.5-->
<!DOCTYPE svg
PUBLIC "-//W3C//DTD SVG 1.1//EN"
       "http://www.w3.org/Graphics/SVG/1.1/DTD/svg11.dtd">
<svg version="1.1" xmlns="http://www.w3.org/2000/svg" xmlns:xlink="http://www.w3.org/1999/xlink" width="55.5625" height="55.3988">
 <g>
  <rect height="55.3988" opacity="0" width="55.5625" x="0" y="0"/>
  <path d="M9.342 16.7391C7.3752 19.9509 6.25 23.707 6.25 27.6838C6.25 27.9531 6.25518 28.2215 6.29143 28.4829C8.68058 30.5303 11.2865 32.2157 14.0354 33.5315C14.0727 29.9427 14.6359 26.4267 15.675 23.0677L18.3514 25.7422C17.6138 28.7186 17.2515 31.8084 17.2839 34.95C20.1656 36.0593 23.163 36.7919 26.1996 37.1455C25.8126 35.6985 25.5263 34.2229 25.3406 32.7266L29.6098 36.9928L29.7254 37.401L30.0163 37.399L33.2362 40.6167C32.4352 40.6928 31.6321 40.7194 30.8296 40.6952C31.7943 43.2386 33.0565 45.674 34.6025 47.9562C36.0365 47.4781 37.3968 46.832 38.6598 46.0365L41.391 48.7658C37.4329 51.381 32.714 52.9025 27.6875 52.9025C13.9375 52.9025 2.46875 41.465 2.46875 27.6838C2.46875 22.661 3.98803 17.9496 6.59987 13.9989ZM19.5246 47.4853C22.0486 48.5594 24.8093 49.1525 27.6875 49.1525C28.8878 49.1525 30.0674 49.0499 31.2106 48.8288C29.5377 46.2244 28.2046 43.4493 27.2267 40.5532C23.911 40.3021 20.6305 39.6251 17.4661 38.5484C17.7666 41.6019 18.4539 44.5916 19.5246 47.4853ZM15.2628 45.0604C14.5952 42.481 14.1887 39.8577 14.0427 37.216C11.5935 36.1505 9.23933 34.8276 7.02722 33.2428C8.32504 38.0437 11.2982 42.2117 15.2628 45.0604ZM52.9375 27.6838C52.9375 32.7121 51.4107 37.4285 48.7886 41.3822L46.0472 38.6426C46.3115 38.2537 46.5425 37.8432 46.7446 37.4164L45.363 37.959L42.7733 35.371C44.7353 34.7264 46.648 33.8809 48.4864 32.8323C48.9321 31.1843 49.1562 29.4559 49.1562 27.6838C49.1562 25.5662 48.8352 23.5113 48.2308 21.5691C44.939 24.0751 41.1998 25.8374 37.2282 26.7861C37.9035 28.8248 38.7828 30.7421 39.8745 32.4743L31.6859 24.2913C32.16 24.2855 32.6274 24.2435 33.0873 24.1681C32.5161 21.5252 32.2267 18.7632 32.2188 15.965C32.2188 13.4624 32.5066 11.0174 33.0996 8.65137C30.8569 12.5654 29.3748 16.8429 28.6977 21.3052L25.8538 18.4634C26.7595 14.2457 28.3299 10.1813 30.549 6.43642L30.0797 6.36296C27.1206 8.96155 24.6254 11.9679 22.6545 15.2663L20.2809 12.8943C21.7071 10.5369 23.4173 8.34391 25.3776 6.3493C22.2431 6.69054 19.2997 7.73505 16.7184 9.33429L13.9876 6.60534C17.9417 3.98808 22.6585 2.46504 27.6875 2.46504C41.4375 2.46504 52.9375 13.9025 52.9375 27.6838ZM35.5312 15.965C35.5393 18.57 35.8121 21.1357 36.3529 23.579C40.2138 22.6678 43.8134 20.8873 46.9264 18.3357C44.7609 13.9174 41.0985 10.3246 36.6323 8.24798C35.8964 10.7397 35.5312 13.3428 35.5312 15.965Z" fill="#000000" fill-opacity="0.85"/>
  <path d="M48.6562 51.715C49.5 52.5588 50.875 52.5275 51.6875 51.6838C52.5 50.84 52.5312 49.4963 51.6875 48.6525L6.75 3.68379C5.90625 2.84004 4.53125 2.84004 3.6875 3.68379C2.875 4.49629 2.875 5.90254 3.6875 6.71504Z" fill="#000000" fill-opacity="0.85"/>
 </g>
</svg>
