<?xml version="1.0" encoding="UTF-8"?>
<!--Generator: Apple Native CoreSVG 232.5-->
<!DOCTYPE svg
PUBLIC "-//W3C//DTD SVG 1.1//EN"
       "http://www.w3.org/Graphics/SVG/1.1/DTD/svg11.dtd">
<svg version="1.1" xmlns="http://www.w3.org/2000/svg" xmlns:xlink="http://www.w3.org/1999/xlink" width="81.5938" height="81.4688">
 <g>
  <rect height="81.4688" opacity="0" width="81.5938" x="0" y="0"/>
  <path d="M40.6875 81.4062C62.9688 81.4062 81.4062 62.9688 81.4062 40.7188C81.4062 18.4375 62.9375 0 40.6562 0C18.4062 0 0 18.4375 0 40.7188C0 62.9688 18.4375 81.4062 40.6875 81.4062ZM40.6875 75.5938C21.375 75.5938 5.84375 60.0312 5.84375 40.7188C5.84375 21.375 21.3438 5.84375 40.6562 5.84375C60 5.84375 75.5625 21.375 75.5625 40.7188C75.5625 60.0312 60.0312 75.5938 40.6875 75.5938Z" fill="#000000" fill-opacity="0.85"/>
  <path d="M40.625 47.9688C42.3125 47.9688 43.3125 46.9688 43.3438 45.125L43.8438 23.6562C43.875 21.8438 42.4688 20.5 40.5938 20.5C38.6875 20.5 37.375 21.8125 37.4062 23.625L37.875 45.125C37.9062 46.9375 38.9062 47.9688 40.625 47.9688ZM40.625 60.6875C42.7812 60.6875 44.5938 58.9688 44.5938 56.8438C44.5938 54.6875 42.8125 53 40.625 53C38.4688 53 36.6875 54.7188 36.6875 56.8438C36.6875 58.9375 38.5 60.6875 40.625 60.6875Z" fill="#000000" fill-opacity="0.85"/>
 </g>
</svg>
