<?xml version="1.0" encoding="UTF-8"?>
<!--Generator: Apple Native CoreSVG 232.5-->
<!DOCTYPE svg
PUBLIC "-//W3C//DTD SVG 1.1//EN"
       "http://www.w3.org/Graphics/SVG/1.1/DTD/svg11.dtd">
<svg version="1.1" xmlns="http://www.w3.org/2000/svg" xmlns:xlink="http://www.w3.org/1999/xlink" width="81.5938" height="81.4688">
 <g>
  <rect height="81.4688" opacity="0" width="81.5938" x="0" y="0"/>
  <path d="M40.6875 81.4062C62.9688 81.4062 81.4062 62.9688 81.4062 40.7188C81.4062 18.4375 62.9375 0 40.6562 0C18.4062 0 0 18.4375 0 40.7188C0 62.9688 18.4375 81.4062 40.6875 81.4062ZM40.6875 75.5938C21.375 75.5938 5.84375 60.0312 5.84375 40.7188C5.84375 21.375 21.3438 5.84375 40.6562 5.84375C60 5.84375 75.5625 21.375 75.5625 40.7188C75.5625 60.0312 60.0312 75.5938 40.6875 75.5938Z" fill="#000000" fill-opacity="0.85"/>
  <path d="M36.2812 59.8438C37.4375 59.8438 38.375 59.3125 39.0625 58.25L58.2188 28.2188C58.625 27.5938 59.0312 26.8125 59.0312 26.0625C59.0312 24.5312 57.6562 23.5 56.25 23.5C55.3438 23.5 54.4688 24.0625 53.8438 25.0625L36.1562 53.1562L27.3438 42.125C26.5312 41.0625 25.75 40.75 24.8125 40.75C23.3125 40.75 22.125 41.9688 22.125 43.5C22.125 44.25 22.4375 45 22.9375 45.6562L33.375 58.25C34.25 59.375 35.125 59.8438 36.2812 59.8438Z" fill="#000000" fill-opacity="0.85"/>
 </g>
</svg>
