<?xml version="1.0" encoding="UTF-8"?>
<!--Generator: Apple Native CoreSVG 232.5-->
<!DOCTYPE svg
PUBLIC "-//W3C//DTD SVG 1.1//EN"
       "http://www.w3.org/Graphics/SVG/1.1/DTD/svg11.dtd">
<svg version="1.1" xmlns="http://www.w3.org/2000/svg" xmlns:xlink="http://www.w3.org/1999/xlink" width="30.75" height="24.3906">
 <g>
  <rect height="24.3906" opacity="0" width="30.75" x="0" y="0"/>
  <path d="M3.98438 23.5938L26.3906 23.5938C29.0469 23.5938 30.375 22.2812 30.375 19.6562L30.375 6.875C30.375 4.25 29.0469 2.95312 26.3906 2.95312L22.9375 2.95312C21.9844 2.95312 21.6875 2.71875 21.1562 2.14062L20.2031 1.0625C19.5938 0.40625 18.9375 0 17.6562 0L12.7031 0C11.4062 0 10.75 0.40625 10.1562 1.0625L9.1875 2.14062C8.67188 2.71875 8.35938 2.95312 7.42188 2.95312L3.98438 2.95312C1.32812 2.95312 0 4.25 0 6.875L0 19.6562C0 22.2812 1.32812 23.5938 3.98438 23.5938ZM4.01562 21.3281C2.89062 21.3281 2.25 20.7344 2.25 19.5469L2.25 7C2.25 5.8125 2.89062 5.20312 4.01562 5.20312L8.01562 5.20312C9.10938 5.20312 9.71875 4.96875 10.3281 4.29688L11.25 3.25C11.9531 2.46875 12.3125 2.25 13.4375 2.25L16.9062 2.25C18.0312 2.25 18.3906 2.46875 19.0938 3.25L20.0312 4.29688C20.625 4.96875 21.25 5.20312 22.3438 5.20312L26.3594 5.20312C27.4688 5.20312 28.1094 5.8125 28.1094 7L28.1094 19.5469C28.1094 20.7344 27.4688 21.3281 26.3594 21.3281ZM15.1875 19.7031C18.875 19.7031 21.8281 16.75 21.8281 13.0312C21.8281 9.32812 18.875 6.375 15.1875 6.375C11.5 6.375 8.53125 9.32812 8.53125 13.0312C8.53125 16.75 11.5 19.7031 15.1875 19.7031ZM15.1875 17.5938C12.6875 17.5938 10.625 15.5625 10.625 13.0312C10.625 10.5 12.6719 8.48438 15.1875 8.48438C17.7031 8.48438 19.7344 10.5 19.7344 13.0312C19.7344 15.5625 17.7031 17.5938 15.1875 17.5938ZM22.2812 8.51562C22.2812 9.375 22.9844 10.0625 23.8438 10.0625C24.6875 10.0625 25.3906 9.375 25.3906 8.51562C25.3906 7.67188 24.6875 6.95312 23.8438 6.95312C22.9844 6.95312 22.2812 7.67188 22.2812 8.51562Z" fill="#000000" fill-opacity="0.85"/>
 </g>
</svg>
