<?xml version="1.0" encoding="UTF-8"?>
<!--Generator: Apple Native CoreSVG 232.5-->
<!DOCTYPE svg
PUBLIC "-//W3C//DTD SVG 1.1//EN"
       "http://www.w3.org/Graphics/SVG/1.1/DTD/svg11.dtd">
<svg version="1.1" xmlns="http://www.w3.org/2000/svg" xmlns:xlink="http://www.w3.org/1999/xlink" width="30.75" height="24.3906">
 <g>
  <rect height="24.3906" opacity="0" width="30.75" x="0" y="0"/>
  <path d="M3.98438 23.5938L26.3906 23.5938C29.0469 23.5938 30.375 22.2812 30.375 19.6562L30.375 6.875C30.375 4.25 29.0469 2.95312 26.3906 2.95312L22.9375 2.95312C21.9844 2.95312 21.6875 2.71875 21.1562 2.14062L20.2031 1.0625C19.5938 0.40625 18.9375 0 17.6562 0L12.7031 0C11.4062 0 10.75 0.40625 10.1562 1.0625L9.1875 2.14062C8.67188 2.71875 8.35938 2.95312 7.42188 2.95312L3.98438 2.95312C1.32812 2.95312 0 4.25 0 6.875L0 19.6562C0 22.2812 1.32812 23.5938 3.98438 23.5938ZM15.1875 19.8438C11.5 19.8438 8.53125 16.8906 8.53125 13.1875C8.53125 9.46875 11.5 6.51562 15.1875 6.51562C18.875 6.51562 21.8281 9.46875 21.8281 13.1875C21.8281 16.8906 18.875 19.8438 15.1875 19.8438ZM15.1875 17.7344C17.7031 17.7344 19.7344 15.7188 19.7344 13.1875C19.7344 10.6562 17.7031 8.625 15.1875 8.625C12.6719 8.625 10.625 10.6562 10.625 13.1875C10.625 15.7188 12.6875 17.7344 15.1875 17.7344ZM22.6562 8.65625C22.6562 7.79688 23.4062 7.04688 24.2812 7.04688C25.1562 7.04688 25.8906 7.79688 25.8906 8.65625C25.8906 9.5625 25.1562 10.25 24.2812 10.2656C23.4062 10.2812 22.6562 9.5625 22.6562 8.65625Z" fill="#000000" fill-opacity="0.85"/>
 </g>
</svg>
