<?xml version="1.0" encoding="UTF-8"?>
<!--Generator: Apple Native CoreSVG 232.5-->
<!DOCTYPE svg
PUBLIC "-//W3C//DTD SVG 1.1//EN"
       "http://www.w3.org/Graphics/SVG/1.1/DTD/svg11.dtd">
<svg version="1.1" xmlns="http://www.w3.org/2000/svg" xmlns:xlink="http://www.w3.org/1999/xlink" width="22.8867" height="20.6807">
 <g>
  <rect height="20.6807" opacity="0" width="22.8867" x="0" y="0"/>
  <path d="M3.41895 20.6807L19.0898 20.6807C21.3662 20.6807 22.5176 19.5381 22.5176 17.2969L22.5176 3.41016C22.5176 1.16895 21.3662 0.0263672 19.0898 0.0263672L3.41895 0.0263672C1.15137 0.0263672 0 1.16016 0 3.41016L0 17.2969C0 19.5469 1.15137 20.6807 3.41895 20.6807ZM3.2959 19.125C2.1709 19.125 1.55566 18.5273 1.55566 17.3672L1.55566 6.88184C1.55566 5.71289 2.1709 5.12402 3.2959 5.12402L19.2041 5.12402C20.3203 5.12402 20.9531 5.71289 20.9531 6.88184L20.9531 17.3672C20.9531 18.5273 20.3203 19.125 19.2041 19.125ZM9.01758 9.16699L9.68555 9.16699C10.0635 9.16699 10.1689 9.06152 10.1689 8.69238L10.1689 8.0332C10.1689 7.66406 10.0635 7.56738 9.68555 7.56738L9.01758 7.56738C8.64844 7.56738 8.54297 7.66406 8.54297 8.0332L8.54297 8.69238C8.54297 9.06152 8.64844 9.16699 9.01758 9.16699ZM12.8408 9.16699L13.5088 9.16699C13.8779 9.16699 13.9834 9.06152 13.9834 8.69238L13.9834 8.0332C13.9834 7.66406 13.8779 7.56738 13.5088 7.56738L12.8408 7.56738C12.4629 7.56738 12.3574 7.66406 12.3574 8.0332L12.3574 8.69238C12.3574 9.06152 12.4629 9.16699 12.8408 9.16699ZM16.6553 9.16699L17.3232 9.16699C17.6924 9.16699 17.8066 9.06152 17.8066 8.69238L17.8066 8.0332C17.8066 7.66406 17.6924 7.56738 17.3232 7.56738L16.6553 7.56738C16.2861 7.56738 16.1719 7.66406 16.1719 8.0332L16.1719 8.69238C16.1719 9.06152 16.2861 9.16699 16.6553 9.16699ZM5.20312 12.9199L5.87109 12.9199C6.24023 12.9199 6.35449 12.8232 6.35449 12.4541L6.35449 11.7861C6.35449 11.4258 6.24023 11.3203 5.87109 11.3203L5.20312 11.3203C4.83398 11.3203 4.71973 11.4258 4.71973 11.7861L4.71973 12.4541C4.71973 12.8232 4.83398 12.9199 5.20312 12.9199ZM9.01758 12.9199L9.68555 12.9199C10.0635 12.9199 10.1689 12.8232 10.1689 12.4541L10.1689 11.7861C10.1689 11.4258 10.0635 11.3203 9.68555 11.3203L9.01758 11.3203C8.64844 11.3203 8.54297 11.4258 8.54297 11.7861L8.54297 12.4541C8.54297 12.8232 8.64844 12.9199 9.01758 12.9199ZM12.8408 12.9199L13.5088 12.9199C13.8779 12.9199 13.9834 12.8232 13.9834 12.4541L13.9834 11.7861C13.9834 11.4258 13.8779 11.3203 13.5088 11.3203L12.8408 11.3203C12.4629 11.3203 12.3574 11.4258 12.3574 11.7861L12.3574 12.4541C12.3574 12.8232 12.4629 12.9199 12.8408 12.9199ZM16.6553 12.9199L17.3232 12.9199C17.6924 12.9199 17.8066 12.8232 17.8066 12.4541L17.8066 11.7861C17.8066 11.4258 17.6924 11.3203 17.3232 11.3203L16.6553 11.3203C16.2861 11.3203 16.1719 11.4258 16.1719 11.7861L16.1719 12.4541C16.1719 12.8232 16.2861 12.9199 16.6553 12.9199ZM5.20312 16.6816L5.87109 16.6816C6.24023 16.6816 6.35449 16.585 6.35449 16.2158L6.35449 15.5479C6.35449 15.1787 6.24023 15.082 5.87109 15.082L5.20312 15.082C4.83398 15.082 4.71973 15.1787 4.71973 15.5479L4.71973 16.2158C4.71973 16.585 4.83398 16.6816 5.20312 16.6816ZM9.01758 16.6816L9.68555 16.6816C10.0635 16.6816 10.1689 16.585 10.1689 16.2158L10.1689 15.5479C10.1689 15.1787 10.0635 15.082 9.68555 15.082L9.01758 15.082C8.64844 15.082 8.54297 15.1787 8.54297 15.5479L8.54297 16.2158C8.54297 16.585 8.64844 16.6816 9.01758 16.6816ZM12.8408 16.6816L13.5088 16.6816C13.8779 16.6816 13.9834 16.585 13.9834 16.2158L13.9834 15.5479C13.9834 15.1787 13.8779 15.082 13.5088 15.082L12.8408 15.082C12.4629 15.082 12.3574 15.1787 12.3574 15.5479L12.3574 16.2158C12.3574 16.585 12.4629 16.6816 12.8408 16.6816Z" fill="#000000" fill-opacity="0.85"/>
 </g>
</svg>
